<svg xmlns="http://www.w3.org/2000/svg" viewBox="0 0 88 78"><defs><style>.cls-1{fill:#fff;}</style></defs><title>cart</title><g id="Layer_2" data-name="Layer 2"><g id="Layer_1-2" data-name="Layer 1"><path class="cls-1" d="M35,0a2,2,0,0,0-1.28.47C33.28.84,20,18,20,18H7a7,7,0,0,0-7,7V37a7,7,0,0,0,7,7H8.34L13,68.38A11.93,11.93,0,0,0,25,78H63a11.93,11.93,0,0,0,12-9.62L79.66,44H81a7,7,0,0,0,7-7V25a7,7,0,0,0-7-7H68L55,1.28a3.85,3.85,0,0,0-.72-.81,2,2,0,0,0-3,2.56A6.19,6.19,0,0,0,52,4L62.91,18H25.09S36.3,3.63,36.66,3.09A2,2,0,0,0,37,2,2,2,0,0,0,35,0ZM7,22H81a3,3,0,0,1,3,3V37a3,3,0,0,1-3,3H7a3,3,0,0,1-3-3V25A3,3,0,0,1,7,22Zm5.44,22H24.22l3.5,30H25c-4.26,0-7.29-2.5-8-6.37Zm15.84,0H42V74H31.78ZM46,44H59.72l-3.5,30H46Zm17.78,0H75.56L71,67.63C70.29,71.5,67.26,74,63,74H60.28Z"/></g></g></svg>