<svg xmlns="http://www.w3.org/2000/svg" viewBox="0 0 156.06 131.2"><defs><style>.cls-1{fill:#ff5353;}</style></defs><title>logo_colored</title><g id="Layer_2" data-name="Layer 2"><g id="Слой_1" data-name="Слой 1"><path d="M15.31,40.28H0V75.1H9.1V63.46h7.68C24,63.46,29,59.84,29,52,29,43.41,23.28,40.28,15.31,40.28ZM14.23,56.42H9.1V47.72H15c3.18,0,5.28,1,5.28,4.4C20.25,56.18,17.36,56.42,14.23,56.42Z"/><rect x="34.43" y="40.28" width="9.15" height="34.82"/><polygon points="80.15 47.13 80.15 40.28 51.59 40.28 51.59 48.01 68.17 48.01 50.52 67.77 50.52 75.1 80.79 75.1 80.79 67.28 62.16 67.28 80.15 47.13"/><polygon points="116.14 67.28 97.51 67.28 115.51 47.13 115.51 40.28 86.95 40.28 86.95 48.01 103.53 48.01 85.87 67.77 85.87 75.1 116.14 75.1 116.14 67.28"/><path d="M146.61,75.1H156L143,40.23H133.8L120.74,75.1H130l2.3-6.36h12ZM134.38,62.19l4-12.18,3.91,12.18Z"/><path d="M6.1,84.08H0V98H3.62V93.31H6.68c2.88,0,4.89-1.44,4.89-4.56C11.57,85.33,9.27,84.08,6.1,84.08Zm-.43,6.43h-2V87H6c1.27,0,2.1.41,2.1,1.75C8.06,90.41,6.92,90.51,5.67,90.51Z"/><polygon points="32.25 84.08 28.61 84.08 28.61 97.95 38.72 97.95 38.72 94.83 32.25 94.83 32.25 84.08"/><path d="M61,84.06,55.76,98h3.7l.92-2.53h4.79l.9,2.53H69.8L64.62,84.06Zm.23,8.75L62.79,88l1.56,4.85Z"/><polygon points="95.47 92.85 90.47 84.08 86.84 84.08 86.84 97.95 90.33 97.95 90.23 89.05 95.3 97.95 98.82 97.95 98.82 84.08 95.32 84.08 95.47 92.85"/><polygon points="119.47 92.2 126.32 92.2 126.32 89.4 119.47 89.4 119.47 87 126.97 87 126.97 84.08 115.86 84.08 115.86 97.95 127.14 97.95 127.14 94.91 119.47 94.91 119.47 92.2"/><polygon points="144.18 84.08 144.18 87.16 148.29 87.16 148.29 97.95 151.95 97.95 151.95 87.16 156.06 87.16 156.06 84.08 144.18 84.08"/><path class="cls-1" d="M70.37,104.94l-.22.14c-17.74,11.6-34.52,18.26-46,18.26-4.93,0-8.52-1.24-10.65-3.67-2.47-2.82-3.09-7.55-1.77-13.67l.23-1.06h-8l-.13.72c-1.5,8.16-.24,14.62,3.76,19.19,3.69,4.22,9.26,6.35,16.56,6.35,14.84,0,35.9-9,57.79-24.67l2.21-1.58Z"/><path class="cls-1" d="M142.92,6.35C139.23,2.14,133.66,0,126.36,0S110,2.29,100.23,6.47a9.49,9.49,0,0,0-16.18,8.18,204.33,204.33,0,0,0-24.69,17L57.41,33.2H70.2l.23-.17A190.65,190.65,0,0,1,88.36,21.15a9.49,9.49,0,0,0,14.55-7.39c8.91-3.83,17-5.91,23.45-5.91,4.93,0,8.52,1.24,10.65,3.67,3.36,3.84,3.26,11.12-.28,20.48l-.45,1.18h8.35l.2-.59C148.68,21.26,148,12.18,142.92,6.35Z"/></g></g></svg>