<svg xmlns="http://www.w3.org/2000/svg" width="100" height="39.97" viewBox="0 0 100 39.97">
  <defs>
    <style>
      .cls-1 {
        fill: #f24e4e;
        fill-rule: evenodd;
      }
    </style>
  </defs>
  <path class="cls-1" d="M1593.06,5326.79a3.98,3.98,0,0,0,2.08-1.9,13.37,13.37,0,0,0-3.42-.59,41.951,41.951,0,0,0,4.08-10.19,3.137,3.137,0,0,0-1.38-.77c-1.18-.45-1.41-0.22-1.41-0.22a11.367,11.367,0,0,1-5.45,6.3c-0.89.49-2.59,1.48-.26-2.66,0.86-1.54,1.56-2.54,1.56-2.54s0.19-.08-1.02-0.79a2.341,2.341,0,0,0-1.75-.51c-0.19.24-.37,0.48-0.53,0.72v-0.02a24.178,24.178,0,0,1-4.58,5.15,12.37,12.37,0,0,0,.69-2.31,1.623,1.623,0,0,0-.86-1.76,4.363,4.363,0,0,0-1.21-.44c-0.78-.16-2.54,1.3-3.87,2.83a16.59,16.59,0,0,0,.46-2.02,1.433,1.433,0,0,0-.6-1.42,3.757,3.757,0,0,0-1.37-.59c-0.93-.18-3.69,2.21-5.27,3.92,0.46-1.09,1.09-2.45.94-3.16a5.705,5.705,0,0,0-2.19-2.91c-11.76,13.57-19.31,14.71-21.68,12.35-0.56-.57-3.3-6.35,7.57-16.17,7.67-6.94,11.84-5.91,12.18-5.59,0.87,0.83.13,2.65-1.43,4.26a6.233,6.233,0,0,1-3.69,2.11c0.65,1.54,4.53,1.47,6.41-1.23,1.23-1.76,1.53-4.68-.35-6.24-4.63-3.84-13.06,1.18-15.9,3.6-4.71,4.01-13.19,14.24-6.08,20.45,6.37,5.57,17.17-4.94,21.77-9.99a27.773,27.773,0,0,1-4.43,7.87,5.429,5.429,0,0,0,.84,1.21,1.861,1.861,0,0,0,1.27.75c0.2-.2,5.28-6.89,8.2-8.63,0.12-.07.84-0.3-0.44,2.48a17.938,17.938,0,0,1-1.7,2.98s-0.19.08,1.02,0.79a2.316,2.316,0,0,0,1.74.51c0.42-.53,2.84-4.77,5.55-6.17,0.13-.07.81-0.28-0.04,1.74a14.652,14.652,0,0,1-1.42,2.73s-0.16.11,0.76,0.62c0.05,0.02.09,0.05,0.14,0.07a2.988,2.988,0,0,0,.98.37c0.82,0.17,2.84-1.43,4.25-3.02-0.13.47-.21,0.89-0.28,1.24a2.119,2.119,0,0,0,.51,1.65c2.04,2.03,6.21-1.61,8.13-4.11a48.371,48.371,0,0,1-3.46,6.87,24.3,24.3,0,0,0-8.29,2.38c-8.83,4.45-9.04,8.34-8.7,9.51a2.75,2.75,0,0,0,.25.59,3.175,3.175,0,0,0,3.31,1.7c2.93-.11,7.37-2.35,11.81-7.08a35.213,35.213,0,0,0,4.16-5.43A9.242,9.242,0,0,1,1593.06,5326.79Zm-8.48,2.78c-2.73,3.55-10.55,8.32-11.33,6.77s5.92-7.82,12.63-9.88c0.38-.11.75-0.2,1.12-0.28C1586.28,5327.28,1585.48,5328.41,1584.58,5329.57Zm43.18-5.27a41.951,41.951,0,0,0,4.08-10.19,3.137,3.137,0,0,0-1.38-.77c-1.18-.45-1.41-0.22-1.41-0.22s-0.95,3.28-5.54,6.33c-0.41.27-2.02,1.24-.15-2.63a16.76,16.76,0,0,1,1.54-2.6s0.19-.08-1.02-0.79a2.341,2.341,0,0,0-1.75-.51,19.829,19.829,0,0,1-5.16,6.55c-0.25.19-1.65,1,.16-2.23,1-1.77,1.53-2.83,1.53-2.83s0.19-.09-1.02-0.79a2.337,2.337,0,0,0-1.75-.51,24.579,24.579,0,0,1-5.99,6.34c-0.39.26-2.04,1.37-.31-2.16a21.266,21.266,0,0,1,1.69-2.88s0.19-.09-1.02-0.79a2.337,2.337,0,0,0-1.75-.51,16.351,16.351,0,0,0-2.92,6.04c-0.83.37-1.92,0.9-3.13,1.59-0.04-.32-0.08-0.61-0.12-0.86a18.583,18.583,0,0,0,1.74-2.17,6.668,6.668,0,0,0,1.25-3.46c0.09-2.11-2.35-2.18-3.77-1.09a2.812,2.812,0,0,0-.6.65,4.136,4.136,0,0,0-2.21-.92,11.824,11.824,0,0,0-3.61,5.38,3.022,3.022,0,0,0,1.14,3.39c0.05,0.04,1.45,1.14,4.49-.45,0.01,0.18.03,0.35,0.05,0.53a60.067,60.067,0,0,0-5.2,4.17c-4.65,3.8-7.61,8.97-5.56,11.55a4.873,4.873,0,0,0,1.31,1.15,2.862,2.862,0,0,0,2.29.26c3.25-.99,6.64-4.89,8.18-9.26a18.731,18.731,0,0,0,.76-7.43c1.06-.72,1.99-1.29,2.72-1.71a1.616,1.616,0,0,0,.57,1.28c1.85,1.35,6-1.79,7.4-3.7-0.21.65-.79,2.58-0.04,3.38,1.54,1.64,4.09,0,5.95-2.43-0.27,1.04-.21,2.6.67,3.05,2.25,1.15,5.59-2.29,7.45-4.2a56.915,56.915,0,0,1-3.31,6.57,25.965,25.965,0,0,0-8.13,2.37c-4.32,2.07-9.57,5.47-8.83,9.44,0.23,1.18,1.87,2.52,4.36,2.22,3.03-.37,7.28-2.84,11.13-6.94a35.213,35.213,0,0,0,4.16-5.43,13.554,13.554,0,0,1,7.02,3.39,2,2,0,0,0,.91-1.2,2.53,2.53,0,0,0,0-1.82A13.062,13.062,0,0,0,1627.76,5324.3Zm-24.12-10.24a0.3,0.3,0,0,1,.45.26,9.79,9.79,0,0,1-1.96,3.91C1601.96,5315.42,1603.02,5314.4,1603.64,5314.06Zm-5.65,6.41c-0.95-.86.97-3.39,2.28-4.92a13.062,13.062,0,0,0,.28,4.16C1599.5,5320.48,1598.44,5320.87,1597.99,5320.47Zm0.9,9.48c-2.16,4.1-6.7,6.76-7.35,5.87-0.35-.48.24-2.81,4.1-7.42a33.49,33.49,0,0,1,5.24-4.97A14.226,14.226,0,0,1,1598.89,5329.95Zm21.73-.38c-2.66,3.6-10.27,8.19-11.05,6.63s5.64-7.68,12.35-9.74c0.34-.1.67-0.18,1-0.25C1622.23,5327.31,1621.46,5328.44,1620.62,5329.57Zm19.16-10.69c-1.51,1.33-3.96,2.94-4.98,2.31-0.49-.31-0.59-1.98.33-3.86,1.54-3.14,3.4-3.71,3.8-3.5,0.55,0.29.51,1.3,0.2,1.89a2.9,2.9,0,0,1-1.31,1.35,1.96,1.96,0,0,0,2.48-.68,2.141,2.141,0,0,0-.86-3.11c-1.61-.84-4.83-0.17-6.5,2.19-1.09,1.55-1.71,4.21-.96,5.72,0.94,1.88,3.36,1.91,4.84,1.18a10.338,10.338,0,0,0,5.18-5.93A14.792,14.792,0,0,1,1639.78,5318.88Zm-64.05-6.39a28.889,28.889,0,0,0,4.84-.15,2.324,2.324,0,0,0,1.09-1.97c0.03-1.17-.33-1.37-0.33-1.37a16.873,16.873,0,0,1-9.25.99,1.945,1.945,0,0,0-.37,1.71S1572.59,5312.38,1575.73,5312.49Z" transform="translate(-1542 -5299)"/>
</svg>
